<svg width="360" height="281" viewBox="0 0 360 281" fill="none" xmlns="http://www.w3.org/2000/svg">
<path d="M188.491 76.4732C191.633 77.6245 195.036 76.9994 198.265 76.4063C198.337 76.393 198.409 76.3797 198.481 76.3665C201.839 75.7507 205.005 75.2107 207.861 76.384C213.703 78.7837 218.408 84.0227 221.188 89.7674C221.835 91.1063 222.042 92.6214 222.036 94.2498C222.03 95.6 221.879 96.9932 221.726 98.4068C221.694 98.705 221.662 99.0041 221.63 99.3039C221.28 102.674 221.069 106.184 223.39 108.726C225.563 111.106 228.584 112.676 231.863 113.891C234.259 114.779 236.833 115.492 239.348 116.188C240.27 116.443 241.184 116.696 242.079 116.955C245.44 117.927 248.53 118.98 250.889 120.529C253.227 122.065 254.82 124.072 255.242 126.972C255.422 128.206 255.251 129.225 254.823 130.094C254.392 130.968 253.685 131.724 252.742 132.398C250.841 133.758 248.076 134.724 244.993 135.66C244.346 135.856 243.685 136.052 243.018 136.249C240.54 136.98 237.972 137.739 235.658 138.7C232.722 139.919 230.103 141.5 228.548 143.861C227.263 145.81 226.922 148.069 227.005 150.408C227.081 152.562 227.52 154.833 227.947 157.044C227.982 157.226 228.017 157.407 228.052 157.587C228.514 159.989 228.925 162.302 228.86 164.405C228.796 166.493 228.262 168.326 226.87 169.806C224.121 172.727 220.155 173.18 215.673 172.945C214.166 172.866 212.631 172.712 211.08 172.557C210.325 172.481 209.567 172.405 208.807 172.338C206.501 172.132 204.197 172.003 202.034 172.212C199.31 172.475 196.597 172.696 193.886 172.917C189.945 173.238 186.007 173.559 182.036 174.008C179.355 174.311 176.703 174.849 174.084 175.381C173.142 175.572 172.205 175.762 171.272 175.94C167.727 176.617 164.218 177.127 160.647 176.902C159.306 176.818 157.933 176.767 156.547 176.716C153.666 176.611 150.731 176.503 147.922 176.084C143.783 175.468 140.051 174.189 137.371 171.329C134.638 168.412 134.521 164.244 134.587 159.704C134.591 159.437 134.595 159.168 134.6 158.899C134.633 156.914 134.667 154.884 134.471 152.944C134.249 150.735 133.726 148.599 132.541 146.721C131.213 144.619 129.042 143.053 126.625 141.742C124.855 140.781 122.909 139.936 121.022 139.115C120.335 138.817 119.657 138.522 118.997 138.226C116.494 137.103 114.264 135.967 112.743 134.562C111.248 133.182 110.463 131.568 110.781 129.434C111.17 126.823 112.661 124.955 114.83 123.453C117.015 121.94 119.847 120.826 122.85 119.725C123.22 119.589 123.593 119.454 123.968 119.318C126.604 118.359 129.312 117.375 131.684 116.114C134.399 114.671 136.741 112.835 138.074 110.188C139.085 108.182 138.958 106.078 138.316 103.991C137.679 101.917 136.513 99.7978 135.377 97.7348L135.373 97.7268C134.226 95.644 133.11 93.6166 132.494 91.6526C131.88 89.6977 131.783 87.869 132.608 86.1608C134.114 83.0438 137.503 82.1322 141.562 81.5218C142.187 81.4279 142.828 81.3409 143.475 81.253C144.887 81.0614 146.332 80.8654 147.71 80.5836C149.732 80.1704 151.687 79.5609 153.325 78.4641C154.992 77.3475 156.329 75.7473 157.51 74.0081C158.31 72.8295 159.057 71.5578 159.787 70.3141C160.129 69.7319 160.468 69.1559 160.806 68.5984C162.975 65.0258 165.17 62.1957 168.701 61.993C172.577 61.7704 175.475 64.4823 178.48 67.8328C178.845 68.2395 179.211 68.6554 179.58 69.0745C180.706 70.352 181.857 71.6588 183.069 72.8247C184.684 74.3785 186.448 75.725 188.491 76.4732Z" fill="#D2D5DA" stroke="white"/>
<path fill-rule="evenodd" clip-rule="evenodd" d="M198.303 76.9077C195.115 77.4939 191.591 78.1417 188.319 76.9427C186.184 76.1605 184.36 74.7612 182.722 73.185C181.494 72.0034 180.323 70.6741 179.194 69.393C178.828 68.9769 178.466 68.5659 178.108 68.1666C175.084 64.7956 172.337 62.285 168.729 62.4921C165.489 62.6782 163.415 65.2644 161.234 68.8579C160.903 69.4019 160.569 69.9705 160.23 70.5488C159.495 71.8 158.733 73.0968 157.924 74.2889C156.728 76.0501 155.348 77.7109 153.603 78.8795C151.886 80.0289 149.859 80.6549 147.81 81.0735C146.415 81.3586 144.942 81.5586 143.522 81.7514C142.878 81.8388 142.246 81.9247 141.636 82.0163C137.552 82.6305 134.437 83.5241 133.058 86.3784C132.309 87.9304 132.379 89.6166 132.971 91.5029C133.57 93.4124 134.661 95.3965 135.815 97.4937L135.826 97.5143C136.953 99.5601 138.141 101.719 138.794 103.844C139.457 106.002 139.61 108.251 138.521 110.413C137.121 113.191 134.678 115.09 131.919 116.556C129.513 117.834 126.77 118.831 124.136 119.788C123.762 119.924 123.39 120.06 123.022 120.195C120.013 121.298 117.24 122.392 115.115 123.864C113.022 125.313 111.638 127.072 111.275 129.508C110.987 131.444 111.681 132.901 113.082 134.195C114.537 135.539 116.697 136.646 119.202 137.77C119.85 138.06 120.521 138.352 121.203 138.649C123.096 139.472 125.073 140.331 126.863 141.302C129.306 142.628 131.567 144.243 132.963 146.454C134.206 148.422 134.742 150.642 134.969 152.894C135.167 154.865 135.133 156.927 135.1 158.908C135.095 159.178 135.091 159.445 135.087 159.711C135.02 164.287 135.162 168.239 137.736 170.987C140.304 173.727 143.904 174.98 147.996 175.59C150.778 176.004 153.663 176.11 156.529 176.215C157.921 176.266 159.309 176.317 160.679 176.403C164.185 176.623 167.643 176.124 171.179 175.449C172.099 175.273 173.028 175.085 173.966 174.895C176.591 174.362 179.276 173.817 181.98 173.511C185.953 173.061 189.911 172.739 193.861 172.417C196.572 172.196 199.279 171.975 201.986 171.714C204.197 171.501 206.539 171.633 208.851 171.84C209.624 171.908 210.388 171.985 211.146 172.061C212.689 172.216 214.204 172.367 215.699 172.446C220.161 172.679 223.921 172.211 226.506 169.463C227.788 168.1 228.298 166.399 228.361 164.389C228.424 162.351 228.024 160.091 227.561 157.681C227.526 157.499 227.491 157.316 227.455 157.132C227.029 154.93 226.583 152.62 226.505 150.425C226.42 148.031 226.766 145.655 228.13 143.585C229.769 141.099 232.5 139.47 235.467 138.238C237.807 137.266 240.41 136.497 242.89 135.765C243.554 135.569 244.209 135.375 244.848 135.181C247.938 134.243 250.627 133.296 252.452 131.991C253.348 131.35 253.99 130.653 254.374 129.873C254.753 129.104 254.914 128.189 254.748 127.044C254.351 124.317 252.862 122.424 250.614 120.947C248.325 119.443 245.299 118.407 241.94 117.435C241.058 117.18 240.151 116.929 239.234 116.675C236.712 115.977 234.107 115.256 231.69 114.36C228.381 113.134 225.272 111.53 223.02 109.063C220.528 106.332 220.786 102.588 221.133 99.2522C221.165 98.9472 221.198 98.6446 221.23 98.3444C221.383 96.9316 221.531 95.5695 221.536 94.2478C221.542 92.6583 221.339 91.2285 220.738 89.9852C217.997 84.3195 213.37 79.1876 207.671 76.8465C204.974 75.7384 201.958 76.2371 198.572 76.8583C198.482 76.8747 198.393 76.8912 198.303 76.9077ZM198.235 75.9034C194.958 76.5048 191.675 77.1074 188.663 76.0037C185.249 74.7531 182.582 71.7254 179.966 68.7562C176.607 64.9429 173.333 61.2262 168.672 61.4938C164.237 61.7484 161.829 65.8497 159.345 70.0793C157.55 73.1371 155.715 76.2619 153.046 78.0486C150.422 79.8057 146.887 80.2854 143.429 80.7546C138.667 81.4007 134.05 82.0272 132.158 85.9433C130.362 89.6612 132.642 93.8037 134.919 97.9399C137.209 102.1 139.496 106.254 137.628 109.963C135.25 114.683 129.455 116.79 123.799 118.847C117.394 121.176 111.167 123.44 110.286 129.36C109.499 134.652 115.007 137.046 120.841 139.582C125.294 141.518 129.937 143.536 132.118 146.988C134.242 150.351 134.17 154.644 134.1 158.89C134.02 163.674 133.942 168.4 137.006 171.671C141.691 176.67 149.394 176.954 156.566 177.218C157.944 177.268 159.302 177.318 160.616 177.401C165.218 177.69 169.698 176.781 174.202 175.867C176.815 175.337 179.435 174.805 182.093 174.505C186.06 174.056 189.98 173.737 193.911 173.416C196.623 173.196 199.34 172.974 202.082 172.71C204.886 172.439 207.953 172.746 211.015 173.053C217.191 173.672 223.34 174.288 227.234 170.148C230.349 166.838 229.401 161.933 228.44 156.957C227.547 152.338 226.643 147.659 228.965 144.136C231.596 140.144 237.525 138.392 243.144 136.733C250.106 134.677 256.591 132.761 255.737 126.9C254.721 119.924 247.259 117.859 239.462 115.701C233.519 114.056 227.382 112.357 223.759 108.389C221.424 105.831 221.82 102.186 222.223 98.4693C222.561 95.3448 222.905 92.1701 221.638 89.5497C218.82 83.7258 214.036 78.3798 208.051 75.9215C204.989 74.6637 201.616 75.2829 198.235 75.9034Z" fill="white"/>
<path fill-rule="evenodd" clip-rule="evenodd" d="M166.566 99.394L166.26 91.588L170.163 91.435L170.469 99.241L166.566 99.394Z" fill="#7A7A7A"/>
<path fill-rule="evenodd" clip-rule="evenodd" d="M179.129 98.9016L178.823 91.0956L182.726 90.9425L183.032 98.7485L179.129 98.9016Z" fill="#7A7A7A"/>
<path fill-rule="evenodd" clip-rule="evenodd" d="M131.855 141.541C164.402 141.541 180.087 176.916 180.087 209.421C180.087 233.716 156.182 248.791 131.855 248.791C99.1063 248.791 57.8418 242.126 57.8418 209.421C57.8418 170.23 92.6119 141.541 131.855 141.541Z" fill="#8BECF2" stroke="white"/>
<path fill-rule="evenodd" clip-rule="evenodd" d="M131.855 142.041C92.8304 142.041 58.3418 170.56 58.3418 209.421C58.3418 217.482 60.881 223.916 65.1842 229.049C69.495 234.19 75.5971 238.048 82.753 240.906C97.0732 246.625 115.5 248.291 131.855 248.291C143.921 248.291 155.871 244.551 164.792 237.818C173.705 231.09 179.587 221.386 179.587 209.421C179.587 193.238 175.681 176.365 167.751 163.555C159.829 150.757 147.915 142.041 131.855 142.041ZM57.3418 209.421C57.3418 169.899 92.3934 141.041 131.855 141.041C148.342 141.041 160.544 150.012 168.601 163.029C176.65 176.032 180.587 193.098 180.587 209.421C180.587 221.75 174.515 231.732 165.394 238.616C156.281 245.494 144.115 249.291 131.855 249.291C115.461 249.291 96.8813 247.625 82.3822 241.835C75.1285 238.938 68.8676 234.998 64.4179 229.691C59.9607 224.375 57.3418 217.712 57.3418 209.421Z" fill="white"/>
<path fill-rule="evenodd" clip-rule="evenodd" d="M123.411 189.013V181.201H127.317V189.013H123.411Z" fill="#2497BA"/>
<path fill-rule="evenodd" clip-rule="evenodd" d="M135.983 189.013V181.201H139.889V189.013H135.983Z" fill="#2497BA"/>
<path d="M173.204 152.454C160.501 141.783 188.237 131.493 203.692 127.682C282.452 122.601 246.883 191.834 248.789 201.361C250.694 210.889 286.898 188.023 299.601 201.361C312.305 214.7 276.101 245.822 225.923 250.269C175.745 254.715 187.178 214.7 203.692 188.023C220.206 161.346 189.083 165.792 173.204 152.454Z" fill="#FDBA74" stroke="white"/>
<path fill-rule="evenodd" clip-rule="evenodd" d="M249.329 198.974C249.194 199.991 249.177 200.752 249.279 201.263C249.38 201.77 249.589 202.143 249.881 202.425C250.176 202.71 250.585 202.925 251.124 203.066C252.218 203.351 253.754 203.306 255.669 203.011C258.512 202.572 262.031 201.613 265.897 200.559C267.234 200.194 268.613 199.818 270.019 199.449C275.46 198.019 281.285 196.695 286.559 196.574C291.83 196.454 296.646 197.533 299.964 201.016C303.332 204.553 303.402 209.246 300.953 214.226C298.512 219.19 293.538 224.527 286.637 229.554C272.824 239.614 251.14 248.536 225.967 250.767C213.371 251.883 204.552 250.219 198.695 246.595C192.813 242.956 189.989 237.384 189.301 230.869C188.615 224.375 190.048 216.931 192.671 209.463C195.295 201.988 199.124 194.452 203.267 187.76C207.376 181.122 208.438 176.546 207.642 173.202C206.851 169.88 204.182 167.608 200.37 165.683C197.704 164.336 194.56 163.196 191.226 161.986C189.782 161.463 188.302 160.926 186.81 160.354C181.907 158.474 176.919 156.227 172.883 152.837C171.249 151.464 170.223 150.063 169.758 148.637C169.29 147.201 169.406 145.785 169.974 144.425C171.095 141.744 173.976 139.268 177.631 137.067C184.973 132.646 195.828 129.107 203.572 127.197L203.616 127.186L203.66 127.184C223.408 125.91 236.094 129.285 244.001 135.314C251.923 141.354 254.958 149.989 255.56 159.01C256.16 168.022 254.338 177.472 252.501 185.23C252.059 187.093 251.62 188.846 251.213 190.474C250.765 192.26 250.356 193.896 250.022 195.363C249.705 196.755 249.463 197.967 249.329 198.974ZM203.769 128.179C223.375 126.92 235.765 130.292 243.394 136.109C251.013 141.918 253.972 150.235 254.562 159.077C255.152 167.93 253.362 177.257 251.527 185C251.095 186.827 250.656 188.578 250.247 190.213C249.795 192.017 249.379 193.679 249.047 195.141C248.727 196.543 248.477 197.79 248.338 198.842C248.2 199.883 248.162 200.78 248.298 201.459C248.435 202.144 248.733 202.708 249.187 203.145C249.637 203.578 250.214 203.861 250.872 204.033C252.172 204.373 253.877 204.299 255.822 203.999C258.726 203.551 262.328 202.569 266.213 201.509C267.539 201.148 268.898 200.777 270.273 200.416C275.709 198.987 281.436 197.691 286.582 197.574C291.732 197.456 296.205 198.52 299.239 201.706C302.223 204.838 302.39 209.038 300.056 213.784C297.714 218.546 292.882 223.768 286.048 228.745C272.391 238.692 250.883 247.555 225.879 249.771C213.386 250.878 204.817 249.207 199.221 245.745C193.651 242.298 190.957 237.033 190.295 230.764C189.631 224.476 191.017 217.192 193.614 209.794C196.21 202.402 200.003 194.932 204.117 188.286C208.265 181.585 209.506 176.714 208.615 172.971C207.719 169.208 204.711 166.755 200.821 164.79C198.099 163.415 194.863 162.241 191.501 161.022C190.07 160.503 188.616 159.975 187.168 159.42C182.286 157.549 177.429 155.35 173.526 152.071C171.984 150.776 171.098 149.521 170.709 148.327C170.323 147.143 170.41 145.975 170.897 144.81C171.887 142.442 174.524 140.106 178.147 137.924C185.347 133.588 196.061 130.082 203.769 128.179Z" fill="white"/>
<path fill-rule="evenodd" clip-rule="evenodd" d="M193.22 149.857V142.739H196.779V149.857H193.22Z" fill="#C78322"/>
<path fill-rule="evenodd" clip-rule="evenodd" d="M204.676 149.857V142.739H208.235V149.857H204.676Z" fill="#C78322"/>
<rect x="57.8418" y="132.434" width="16.3477" height="10.8289" transform="rotate(-60.3549 57.8418 132.434)" fill="#A19FF2"/>
<rect x="280.931" y="155.185" width="16.3477" height="10.8289" transform="rotate(-77.6093 280.931 155.185)" fill="#F2EA9F"/>
<rect x="248.886" y="45.9369" width="10.8289" height="17.2839" transform="rotate(44.8625 248.886 45.9369)" fill="#9BDD9A"/>
<rect x="89.2275" y="60.7212" width="10.8289" height="17.2839" transform="rotate(-60.3549 89.2275 60.7212)" fill="#FF8E8E"/>
<path d="M89.2275 94.8248C90.3325 96.6049 93.609 99.3899 97.8749 96.2898C102.141 93.1896 105.503 96.8696 106.65 99.0971" stroke="#7CD0FF" stroke-width="4" stroke-linecap="round"/>
<path d="M269.389 106.401C271.461 106.093 275.318 104.191 274.165 99.0453C273.013 93.8993 277.725 92.2742 280.225 92.1048" stroke="#CE9FF2" stroke-width="4" stroke-linecap="round"/>
<path d="M170.909 46.9025C172.828 46.0618 176.051 43.2148 173.589 38.5513C171.127 33.8879 175.248 31.0836 177.616 30.2644" stroke="#A19FF2" stroke-width="4" stroke-linecap="round"/>
</svg>
