<svg width="360" height="226" viewBox="0 0 360 226" fill="none" xmlns="http://www.w3.org/2000/svg">
<g clip-path="url(#clip0_428_10481)">
<mask id="mask0_428_10481" style="mask-type:alpha" maskUnits="userSpaceOnUse" x="0" y="-63" width="361" height="330">
<rect x="0.0712891" y="-62.7603" width="360" height="329.578" fill="#D9D9D9"/>
</mask>
<g mask="url(#mask0_428_10481)">
<path d="M-82.2202 185.448L-28.3616 33.6516H399.033V202.449C350.965 184.234 225.99 158.732 110.628 202.449C-4.73329 246.166 -66.0047 209.331 -82.2202 185.448Z" fill="#53DBEC"/>
<path fill-rule="evenodd" clip-rule="evenodd" d="M335.041 134.285C296.939 141.828 259.84 157.148 219.451 152.443C178.341 147.655 176.741 116.226 135.847 111.081C88.2633 105.096 41.4874 129.491 -6.41194 124.031C-75.3661 116.172 -198.865 105.598 -183.9 74.635C-166.399 38.424 -17.6717 57.1181 39.013 30.0432C74.4612 13.1118 22.0695 -18.7598 51.5535 -37.827C83.3746 -58.4058 147.508 -83.9453 197.217 -72.2672C257.275 -58.1575 209.123 -7.00992 262.448 11.7192C313.416 29.6203 401.216 -0.196118 452.64 17.4438C502.139 34.4234 532.361 70.2053 506.848 95.5547C480.048 122.182 394.912 122.434 335.041 134.285Z" fill="#3BC9DB"/>
<path fill-rule="evenodd" clip-rule="evenodd" d="M-11.3222 40.5149C-32.4187 23.6968 -56.5545 6.64506 -53.9098 -12.5762C-51.2058 -32.2278 -27.1917 -49.9494 3.09569 -64.2699C32.8634 -78.3447 70.6696 -90.2374 113.922 -91.9307C154.958 -93.5372 189.366 -80.6845 226.83 -73.029C263.776 -65.4795 305.796 -61.7087 331.138 -47.5444C358.738 -32.1178 371.85 -12.295 370.758 7.4179C369.604 28.2572 361.536 51.9305 324.912 64.8806C289.096 77.5452 236.719 67.1486 191.697 70.7342C148.934 74.1399 110.058 91.4111 68.834 85.2749C27.196 79.0771 10.1016 57.5939 -11.3222 40.5149Z" fill="#1DADBE"/>
</g>
</g>
<defs>
<clipPath id="clip0_428_10481">
<rect width="360" height="225.374" fill="white"/>
</clipPath>
</defs>
</svg>
