<svg width="108" height="116" viewBox="0 0 108 116" fill="none" xmlns="http://www.w3.org/2000/svg">
<g filter="url(#filter0_d_534_8718)">
<path d="M4 3.7278H14.5371V0.628662H26.3701V3.7278H36.9072V11.3348H4V3.7278ZM38.654 3.16432H49.9236V12.4617H54.9949V22.0409H49.9236V31.0002H38.654V3.16432ZM36.9072 21.8718C36.9072 23.4496 36.663 24.8207 36.1747 25.9852C35.7239 27.1498 35.0665 28.1077 34.2025 28.859C33.3761 29.5727 32.3618 30.1174 31.1597 30.4931C29.9952 30.8312 28.718 31.0002 27.3281 31.0002H13.5792C12.1892 31.0002 10.8932 30.8312 9.69114 30.4931C8.52662 30.1174 7.51236 29.5727 6.64835 28.859C5.82192 28.1077 5.16452 27.1498 4.67618 25.9852C4.22539 24.8207 4 23.4496 4 21.8718C4 20.2941 4.22539 18.923 4.67618 17.7584C5.16452 16.5939 5.82192 15.6548 6.64835 14.941C7.51236 14.1897 8.52662 13.645 9.69114 13.307C10.8932 12.9313 12.1892 12.7435 13.5792 12.7435H27.3281C28.718 12.7435 29.9952 12.9313 31.1597 13.307C32.3618 13.645 33.3761 14.1897 34.2025 14.941C35.0665 15.6548 35.7239 16.5939 36.1747 17.7584C36.663 18.923 36.9072 20.2941 36.9072 21.8718ZM20.4536 13.645C20.416 14.772 20.1719 15.8238 19.7211 16.8005C19.2703 17.7772 18.5378 18.6412 17.5235 19.3925C16.5092 20.1063 15.1757 20.6885 13.5228 21.1393C11.9075 21.5901 9.89775 21.8343 7.49357 21.8718C9.89775 21.9094 11.9075 22.1536 13.5228 22.6044C15.1757 23.0551 16.5092 23.6562 17.5235 24.4075C18.5378 25.1212 19.2703 25.9852 19.7211 26.9995C20.1719 27.9762 20.416 29.028 20.4536 30.155C20.4912 29.028 20.7353 27.9762 21.1861 26.9995C21.6369 25.9852 22.3507 25.1212 23.3273 24.4075C24.3416 23.6562 25.6564 23.0551 27.2717 22.6044C28.9246 22.1536 30.9719 21.9094 33.4136 21.8718C30.9719 21.8343 28.9246 21.5901 27.2717 21.1393C25.6564 20.6885 24.3416 20.1063 23.3273 19.3925C22.3507 18.6412 21.6369 17.7772 21.1861 16.8005C20.7353 15.8238 20.4912 14.772 20.4536 13.645ZM49.9236 32.6907V50.8347H4.84522V32.6907H49.9236ZM27.3844 34.0993C27.3093 35.7522 26.8585 37.0858 26.032 38.1001C25.2056 39.0768 23.9847 39.8468 22.3694 40.4103C20.7917 40.9362 18.8007 41.3119 16.3966 41.5373C13.9924 41.7251 11.175 41.819 7.94436 41.819C11.2877 41.8566 14.1802 41.9693 16.6219 42.1571C19.0637 42.3449 21.0734 42.7394 22.6512 43.3404C24.2665 43.9039 25.4498 44.7115 26.2011 45.7634C26.99 46.8528 27.3844 48.2615 27.3844 49.9895C27.3844 48.2615 27.7601 46.8528 28.5114 45.7634C29.3002 44.7115 30.4835 43.9039 32.0613 43.3404C33.6766 42.7394 35.6863 42.3449 38.0905 42.1571C40.5323 41.9317 43.4248 41.8002 46.7681 41.7627C43.5375 41.7627 40.7201 41.6688 38.3159 41.4809C35.9117 41.2931 33.902 40.9362 32.2867 40.4103C30.7089 39.8468 29.5068 39.0768 28.6804 38.1001C27.8915 37.0858 27.4595 35.7522 27.3844 34.0993Z" fill="white"/>
<path d="M70.7547 50.8347C71.2806 47.4914 71.7126 44.242 72.0507 41.0865C72.4264 37.931 72.7269 34.7755 72.9523 31.62C73.1777 28.4646 73.3655 25.2715 73.5158 22.0409C73.666 18.8103 73.7787 15.4294 73.8538 11.8983H70.473V3.16432H82.5878C82.5126 6.35737 82.4375 9.43773 82.3624 12.4054C82.3248 15.3355 82.2497 18.228 82.137 21.083H84.5036V3.16432H93.4629V50.8347H84.5036V30.6621H81.6862C81.4608 33.9679 81.1603 37.2736 80.7846 40.5794C80.4466 43.8851 80.0146 47.3036 79.4886 50.8347H70.7547ZM57.2312 50.8347C57.7571 47.4914 58.2079 44.242 58.5836 41.0865C58.9592 37.931 59.2785 34.7755 59.5415 31.62C59.842 28.4646 60.0674 25.2715 60.2176 22.0409C60.4055 18.8103 60.5369 15.4294 60.6121 11.8983H56.9495V3.16432H69.346C69.2709 7.48433 69.1582 11.6353 69.0079 15.6172C68.8952 19.5616 68.7262 23.4496 68.5008 27.2812C68.2754 31.1129 67.9561 34.9633 67.5429 38.8326C67.1297 42.7018 66.6037 46.7025 65.9651 50.8347H57.2312ZM95.0407 3.16432H104V50.8347H95.0407V3.16432Z" fill="white"/>
<path d="M4 60.0757H14.5371V56.9766H26.3701V60.0757H36.9072V66.5558H4V60.0757ZM38.654 59.5123H49.9236V66.7812H54.9949V76.3603H49.9236V83.7982H38.654V59.5123ZM36.9072 75.7405C36.9072 77.3182 36.6442 78.633 36.1183 79.6848C35.5924 80.6991 34.8599 81.5068 33.9208 82.1078C33.0192 82.7088 31.9486 83.1408 30.7089 83.4038C29.4693 83.6292 28.1545 83.7419 26.7646 83.7419H14.1426C12.7527 83.7419 11.4379 83.6292 10.1983 83.4038C8.95862 83.1408 7.86923 82.7088 6.93009 82.1078C6.02853 81.5068 5.31479 80.6991 4.78887 79.6848C4.26296 78.633 4 77.3182 4 75.7405C4 74.1627 4.26296 72.8667 4.78887 71.8525C5.31479 70.8006 6.02853 69.9742 6.93009 69.3732C7.86923 68.7721 8.95862 68.3589 10.1983 68.1335C11.4379 67.8706 12.7527 67.7391 14.1426 67.7391H26.7646C28.1545 67.7391 29.4693 67.8706 30.7089 68.1335C31.9486 68.3589 33.0192 68.7721 33.9208 69.3732C34.8599 69.9742 35.5924 70.8006 36.1183 71.8525C36.6442 72.8667 36.9072 74.1627 36.9072 75.7405ZM20.4536 68.6406C20.416 69.7676 20.1719 70.7631 19.7211 71.6271C19.2703 72.4911 18.5378 73.2236 17.5235 73.8247C16.5092 74.4257 15.1757 74.8953 13.5228 75.2334C11.9075 75.5339 9.89775 75.7029 7.49357 75.7405C9.89775 75.7781 11.9075 75.9659 13.5228 76.304C15.1757 76.6421 16.5092 77.1116 17.5235 77.7127C18.5378 78.3137 19.2703 79.0462 19.7211 79.9102C20.1719 80.7742 20.416 81.7697 20.4536 82.8967C20.4912 81.7697 20.7353 80.7742 21.1861 79.9102C21.6369 79.0462 22.3507 78.3137 23.3273 77.7127C24.3416 77.1116 25.6564 76.6421 27.2717 76.304C28.9246 75.9659 30.9719 75.7781 33.4136 75.7405C30.9719 75.7029 28.9246 75.5339 27.2717 75.2334C25.6564 74.8953 24.3416 74.4257 23.3273 73.8247C22.3507 73.2236 21.6369 72.4911 21.1861 71.6271C20.7353 70.7631 20.4912 69.7676 20.4536 68.6406ZM4.84522 84.9252H49.9236V96.9837C47.0311 97.3969 44.2888 97.7538 41.6968 98.0543C39.1048 98.3172 36.4752 98.5426 33.8081 98.7305C31.1785 98.9183 28.4174 99.0498 25.5249 99.1249C22.67 99.2 19.5333 99.2376 16.1148 99.2376V100.646C19.5333 100.646 22.6887 100.609 25.5813 100.534C28.4738 100.458 31.2536 100.346 33.9208 100.195C36.5879 100.008 39.2362 99.7635 41.8658 99.463C44.4954 99.1625 47.2752 98.8056 50.2053 98.3924V107.183H4.84522V92.8139H38.654V91.4616H4.84522V84.9252Z" fill="white"/>
<path d="M81.9679 59.5123H91.7725V78.0508H94.1955V59.5123H104V107.183H94.1955V87.6299H91.7725V107.183H81.9679V59.5123ZM57.2312 78.6706H69.9095V68.2462H57.2312V59.5123H79.714V87.4045H67.0357V98.4487C69.177 98.4487 71.337 98.336 73.5158 98.1106C75.7321 97.8477 77.8921 97.3969 79.9958 96.7583V107.183H57.2312V78.6706Z" fill="white"/>
</g>
<defs>
<filter id="filter0_d_534_8718" x="0" y="0.628662" width="108" height="114.554" filterUnits="userSpaceOnUse" color-interpolation-filters="sRGB">
<feFlood flood-opacity="0" result="BackgroundImageFix"/>
<feColorMatrix in="SourceAlpha" type="matrix" values="0 0 0 0 0 0 0 0 0 0 0 0 0 0 0 0 0 0 127 0" result="hardAlpha"/>
<feOffset dy="4"/>
<feGaussianBlur stdDeviation="2"/>
<feComposite in2="hardAlpha" operator="out"/>
<feColorMatrix type="matrix" values="0 0 0 0 0.113725 0 0 0 0 0.678431 0 0 0 0 0.745098 0 0 0 0.16 0"/>
<feBlend mode="normal" in2="BackgroundImageFix" result="effect1_dropShadow_534_8718"/>
<feBlend mode="normal" in="SourceGraphic" in2="effect1_dropShadow_534_8718" result="shape"/>
</filter>
</defs>
</svg>
