<svg width="24" height="24" viewBox="0 0 24 24" fill="none" xmlns="http://www.w3.org/2000/svg">
<path d="M4.52013 5.93455L1.39413 2.80755L2.80813 1.39355L22.6071 21.1916L21.1931 22.6066L17.8831 19.2966C16.1241 20.4123 14.0832 21.0031 12.0001 20.9996C6.60813 20.9996 2.12213 17.1196 1.18213 11.9996C1.61182 9.67088 2.78268 7.54347 4.52013 5.93455ZM14.7581 16.1716L13.2941 14.7076C12.7342 14.9755 12.1049 15.0631 11.4931 14.9583C10.8812 14.8536 10.3169 14.5616 9.878 14.1227C9.43907 13.6838 9.1471 13.1195 9.04235 12.5076C8.93759 11.8958 9.02521 11.2665 9.29313 10.7066L7.82913 9.24255C7.19284 10.204 6.9084 11.3559 7.02396 12.503C7.13952 13.6502 7.64798 14.7222 8.46325 15.5374C9.27851 16.3527 10.3505 16.8612 11.4976 16.9767C12.6448 17.0923 13.7966 16.8078 14.7581 16.1716ZM7.97413 3.75955C9.22113 3.26955 10.5801 2.99955 12.0001 2.99955C17.3921 2.99955 21.8781 6.87955 22.8191 11.9996C22.5129 13.6656 21.8241 15.2378 20.8071 16.5926L16.9471 12.7326C17.0618 11.9602 16.994 11.1717 16.7491 10.4302C16.5042 9.68876 16.089 9.01497 15.5369 8.46282C14.9847 7.91068 14.3109 7.49553 13.5695 7.25063C12.828 7.00573 12.0395 6.93789 11.2671 7.05255L7.97413 3.75955Z" fill="#9CA3AF"/>
</svg>
