<svg width="24" height="24" viewBox="0 0 24 24" fill="none" xmlns="http://www.w3.org/2000/svg">
<path d="M1.18213 12C2.12213 6.88 6.60813 3 12.0001 3C17.3921 3 21.8781 6.88 22.8191 12C21.8791 17.12 17.3921 21 12.0001 21C6.60813 21 2.12213 17.12 1.18213 12ZM12.0001 17C13.3262 17 14.598 16.4732 15.5357 15.5355C16.4733 14.5979 17.0001 13.3261 17.0001 12C17.0001 10.6739 16.4733 9.40215 15.5357 8.46447C14.598 7.52678 13.3262 7 12.0001 7C10.674 7 9.40228 7.52678 8.46459 8.46447C7.52691 9.40215 7.00013 10.6739 7.00013 12C7.00013 13.3261 7.52691 14.5979 8.46459 15.5355C9.40228 16.4732 10.674 17 12.0001 17ZM12.0001 15C11.2045 15 10.4414 14.6839 9.87881 14.1213C9.3162 13.5587 9.00013 12.7956 9.00013 12C9.00013 11.2044 9.3162 10.4413 9.87881 9.87868C10.4414 9.31607 11.2045 9 12.0001 9C12.7958 9 13.5588 9.31607 14.1214 9.87868C14.6841 10.4413 15.0001 11.2044 15.0001 12C15.0001 12.7956 14.6841 13.5587 14.1214 14.1213C13.5588 14.6839 12.7958 15 12.0001 15Z" fill="#9CA3AF"/>
</svg>
