<svg width="48" height="48" viewBox="0 0 48 48" fill="none" xmlns="http://www.w3.org/2000/svg">
<path d="M48 24C48 10.7452 37.2548 0 24 0C10.7452 0 0 10.7452 0 24C0 37.2548 10.7452 48 24 48C37.2548 48 48 37.2548 48 24Z" fill="white"/>
<path fill-rule="evenodd" clip-rule="evenodd" d="M35.7446 24.2729C35.7446 23.422 35.6683 22.6038 35.5265 21.8184H24.2246V26.4602H30.6828C30.4046 27.9602 29.5592 29.2311 28.2883 30.082V33.0929H32.1664C34.4355 31.0038 35.7446 27.9275 35.7446 24.2729Z" fill="#4285F4"/>
<path fill-rule="evenodd" clip-rule="evenodd" d="M24.2237 36.0003C27.4637 36.0003 30.18 34.9257 32.1655 33.093L28.2873 30.0821C27.2128 30.8021 25.8382 31.2276 24.2237 31.2276C21.0982 31.2276 18.4527 29.1166 17.5091 26.2803H13.5V29.3894C15.4745 33.3112 19.5327 36.0003 24.2237 36.0003Z" fill="#34A853"/>
<path fill-rule="evenodd" clip-rule="evenodd" d="M17.5101 26.2804C17.2701 25.5604 17.1337 24.7913 17.1337 24.0004C17.1337 23.2095 17.2701 22.4404 17.5101 21.7204V18.6113H13.501C12.6882 20.2313 12.2246 22.0641 12.2246 24.0004C12.2246 25.9368 12.6882 27.7695 13.501 29.3895L17.5101 26.2804Z" fill="#FBBC05"/>
<path fill-rule="evenodd" clip-rule="evenodd" d="M24.2237 16.7727C25.9855 16.7727 27.5673 17.3782 28.8109 18.5673L32.2528 15.1255C30.1746 13.1891 27.4582 12 24.2237 12C19.5327 12 15.4745 14.6891 13.5 18.6109L17.5091 21.72C18.4527 18.8837 21.0982 16.7727 24.2237 16.7727Z" fill="#EA4335"/>
</svg>
